<?xml version="1.0" encoding="utf-8"?>
<!-- Generator: Adobe Adobe Illustrator 29.2.0, SVG Export Plug-In . SVG Version: 6.00 Build 0)  -->
<svg version="1.1" id="Layer_1" xmlns="http://www.w3.org/2000/svg"
	xmlns:xlink="http://www.w3.org/1999/xlink"
	x="0px" y="0px"
	viewBox="0 0 256.11 213.77"
	style="enable-background:new 0 0 256.11 213.77;" xml:space="preserve"> <style type="text/css">
	.st0{fill:#151012;}
</style>
	<!-- width="256.11px" height="213.77px" -->
<g>
		<path class="st0"
			d="M175.45,115h-34.6c-0.05,0-0.1-0.05-0.1-0.1V56.81l-0.03-0.48h-0.01c-0.54-16.33-14.13-29.53-30.51-29.53
		c-16.39,0-29.8,12.82-30.52,29.19c-0.02,0.48,0.15,0.94,0.49,1.29c0.34,0.35,0.81,0.56,1.31,0.56h10.94c0.16,0,0.31,0.01,0.46,0.01
		c0.61,0.02,1.19,0.04,1.61-0.36c0.3-0.29,0.45-0.74,0.45-1.39c0.14-3.8,1.83-7.36,4.76-10.01c3.13-2.83,7.21-4.24,11.49-3.98
		c7.75,0.49,14.3,7.76,14.3,15.87l0.16,60.04c0.23,12.56,11.93,23.17,25.55,23.17c14.07,0,25.35-10.89,25.67-24.81
		C176.87,115.56,176.29,115,175.45,115z" />
		<path class="st0"
			d="M157.5,97.87c-0.24,1.01,0.04,2.05,0.76,2.77c0.55,0.55,1.29,0.85,2.06,0.85c0.24,0,0.47-0.03,0.71-0.09
		c1.03-0.25,1.86-1.07,2.11-2.1c0.25-1.01-0.04-2.05-0.76-2.77c-0.72-0.72-1.76-1.01-2.77-0.77
		C158.57,96.01,157.75,96.84,157.5,97.87z" />
		<path class="st0"
			d="M168.22,87.32c-0.24,1.01,0.04,2.05,0.77,2.77c0.55,0.55,1.29,0.85,2.06,0.85c0.24,0,0.47-0.03,0.71-0.09
		c1.03-0.25,1.86-1.07,2.11-2.1c0.24-1.01-0.04-2.05-0.76-2.77c-0.72-0.72-1.76-1.01-2.77-0.76
		C169.29,85.47,168.47,86.29,168.22,87.32z" />
		<path class="st0"
			d="M150.59,93.38c0.24,0,0.47-0.03,0.71-0.09c1.03-0.25,1.86-1.07,2.11-2.1c0.24-1.01-0.04-2.05-0.76-2.77
		c-0.72-0.72-1.76-1.01-2.77-0.76c-1.03,0.25-1.86,1.07-2.1,2.1c-0.24,1.01,0.04,2.05,0.77,2.77
		C149.09,93.08,149.82,93.38,150.59,93.38z" />
		<path class="st0"
			d="M162.76,81.18c0.24,0,0.47-0.03,0.71-0.08c1.03-0.25,1.86-1.07,2.11-2.1c0.24-1.01-0.04-2.05-0.76-2.77
		c-0.72-0.72-1.76-1.01-2.77-0.77c-1.03,0.25-1.86,1.08-2.1,2.1c-0.24,1.01,0.04,2.05,0.76,2.77
		C161.25,80.88,161.99,81.18,162.76,81.18z" />
		<path class="st0"
			d="M155.45,67.16c0.24,0,0.47-0.03,0.71-0.09c1.03-0.25,1.86-1.07,2.1-2.1c0.24-1.01-0.04-2.05-0.76-2.77
		c-0.72-0.72-1.76-1.01-2.77-0.76c-1.03,0.25-1.86,1.07-2.1,2.1c-0.24,1.01,0.04,2.05,0.76,2.77
		C153.95,66.87,154.68,67.16,155.45,67.16z" />
		<path class="st0"
			d="M167.63,55.9c0.25,0,0.51-0.03,0.76-0.09c1.11-0.27,2-1.15,2.26-2.26c0.26-1.09-0.04-2.2-0.82-2.98
		c-0.78-0.78-1.89-1.09-2.98-0.82c-1.11,0.27-1.99,1.16-2.26,2.26c-0.26,1.09,0.05,2.2,0.82,2.98
		C166.01,55.58,166.8,55.9,167.63,55.9z" />
		<path class="st0"
			d="M115.86,71.42c-20.2,0.44-36.63,16.04-36.63,34.78s16.43,34.35,36.64,34.78c0.86,0,1.33-0.47,1.33-1.32V72.74
		C117.2,71.9,116.72,71.42,115.86,71.42z M96.55,123.33c0.85-1.7,2.4-4.08,4.97-5.76c2.59-1.69,5.65-2.32,7.77-2.55
		c0.05-0.01,0.1-0.01,0.15-0.01c0.46,0,0.8,0.23,0.96,0.47c0.1,0.14,0.24,0.43,0.07,0.78c-0.85,1.7-2.4,4.08-4.97,5.76
		c-2.59,1.69-5.65,2.32-7.77,2.55c-0.54,0.06-0.93-0.2-1.12-0.46C96.51,123.97,96.37,123.68,96.55,123.33z M110.41,97.46
		c-0.18,0.26-0.57,0.52-1.11,0.46c-2.12-0.23-5.19-0.86-7.78-2.55c-2.58-1.68-4.13-4.06-4.98-5.76c-0.17-0.34-0.03-0.63,0.06-0.77
		c0.18-0.26,0.57-0.52,1.11-0.46c2.12,0.23,5.19,0.86,7.78,2.55c2.58,1.68,4.13,4.06,4.98,5.76
		C110.65,97.03,110.51,97.32,110.41,97.46z M110.11,106.71c-0.02,0.46-0.32,0.86-0.8,1.08c-2.28,1.05-5.81,2.26-9.63,2.17
		c-3.82-0.1-7.11-1.5-9.2-2.66c-0.38-0.21-0.59-0.56-0.58-0.96c0.02-0.46,0.32-0.86,0.8-1.08c1.97-0.9,4.85-1.93,8.06-2.14
		c0.52-0.03,1.04-0.04,1.57-0.03c3.81,0.1,7.11,1.5,9.2,2.66C109.92,105.96,110.13,106.31,110.11,106.71z" />
	</g>
<g>
		<path
			d="M36.26,182.88c-1.49,0.87-2.93,1.27-5.05,1.27c-5.38,0-9.11-4.49-9.11-9.87v-0.09c0-5.38,3.81-9.78,9.11-9.78
		c1.98,0,3.69,0.53,5.29,1.48l0.92-6.92c-1.74-0.58-3.74-0.92-6.15-0.92c-9.65,0-16.38,7.31-16.38,16.24v0.09
		c0,9.02,6.86,16.15,16.11,16.15c2.45,0,4.48-0.37,6.26-1.01L36.26,182.88z" />
		<path
			d="M51.75,190.14c-6.83,0-11.89-5.06-11.89-11.39v-0.08c0-6.33,5.1-11.48,11.97-11.48c6.83,0,11.89,5.06,11.89,11.39v0.08
		C63.72,185,58.61,190.14,51.75,190.14z M57.55,178.66c0-3.25-2.34-6.09-5.8-6.09c-3.58,0-5.72,2.76-5.72,6.01v0.08
		c0,3.25,2.34,6.09,5.8,6.09c3.58,0,5.72-2.76,5.72-6.01V178.66z" />
		<path
			d="M77.51,190.14c-6.83,0-11.89-5.06-11.89-11.39v-0.08c0-6.33,5.1-11.48,11.97-11.48c6.83,0,11.89,5.06,11.89,11.39v0.08
		C89.48,185,84.38,190.14,77.51,190.14z M83.31,178.66c0-3.25-2.34-6.09-5.8-6.09c-3.58,0-5.72,2.76-5.72,6.01v0.08
		c0,3.25,2.34,6.09,5.8,6.09c3.58,0,5.72-2.76,5.72-6.01V178.66z" />
		<path
			d="M107.38,189.65l-5.76-9.01l-2.18,2.3v6.71h-6.25v-30.03h6.25v16l7.32-8.02h7.49l-8.39,8.68l8.68,13.37H107.38z" />
		<path
			d="M124.47,190.06c-3.08,0-6.54-1.03-9.46-3.33l2.68-4.11c2.38,1.73,4.89,2.63,6.95,2.63c1.81,0,2.63-0.66,2.63-1.64v-0.08
		c0-1.36-2.14-1.81-4.56-2.55c-3.08-0.91-6.58-2.34-6.58-6.62v-0.08c0-4.48,3.62-6.99,8.06-6.99c2.8,0,5.84,0.94,8.23,2.55
		l-2.38,4.32c-2.18-1.28-4.36-2.06-5.96-2.06c-1.52,0-2.3,0.66-2.3,1.52v0.08c0,1.23,2.1,1.81,4.48,2.63
		c3.08,1.03,6.66,2.51,6.66,6.54v0.08C132.9,187.84,129.24,190.06,124.47,190.06z" />
		<path
			d="M165.55,190.14l-2.9-7.13h-13.43l-2.9,7.13h-7.13l13.62-32h6.45l13.62,32H165.55z M155.93,166.54l-4.22,10.3h8.45
		L155.93,166.54z" />
		<path
			d="M181.11,190.02c-3.82,0-6.42-1.52-6.42-6.62v-10.45h-2.63v-5.35h2.63v-5.63h6.25v5.63h5.18v5.35h-5.18v9.42
		c0,1.44,0.62,2.14,2.02,2.14c1.15,0,2.18-0.29,3.08-0.78v5.02C184.73,189.52,183.21,190.02,181.11,190.02z" />
		<path d="M190.21,189.65v-30.03h6.25v30.03H190.21z" />
		<path
			d="M232.8,190.06c-3.08,0-6.54-1.03-9.46-3.33l2.68-4.11c2.38,1.73,4.89,2.63,6.95,2.63c1.81,0,2.63-0.66,2.63-1.64v-0.08
		c0-1.36-2.14-1.81-4.56-2.55c-3.08-0.91-6.58-2.34-6.58-6.62v-0.08c0-4.48,3.62-6.99,8.06-6.99c2.8,0,5.84,0.94,8.23,2.55
		l-2.38,4.32c-2.18-1.28-4.36-2.06-5.96-2.06c-1.52,0-2.3,0.66-2.3,1.52v0.08c0,1.23,2.1,1.81,4.48,2.63
		c3.08,1.03,6.66,2.51,6.66,6.54v0.08C241.23,187.84,237.57,190.06,232.8,190.06z" />
		<path
			d="M200.21,183.23v0.08c0,4.36,3.41,6.74,7.57,6.74c1.61,0,2.93-0.35,4.06-0.9v-3.8c-0.64,0.23-1.34,0.38-2.17,0.38
		c-2.02,0-3.42-0.98-3.42-2.67v-0.08c0-1.97,1.65-3.04,4.32-3.04c0.45,0,0.85,0.07,1.26,0.13v-3.64c-0.82-0.14-1.7-0.24-2.74-0.24
		C203.87,176.2,200.21,178.42,200.21,183.23z M210.66,167.35c-3.74,0-6.13,0.7-8.56,1.77l1.56,4.77c2.02-0.74,3.7-1.19,6.09-1.19
		c3.13,0,4.73,1.44,4.73,4.03l-0.04,12.92h6.04v-12.79C220.49,170.89,217.48,167.35,210.66,167.35z" />
	</g>
</svg>
